<?xml version="1.0" encoding="utf-8"?>
<!-- Generator: Adobe Illustrator 27.3.1, SVG Export Plug-In . SVG Version: 6.00 Build 0)  -->
<svg version="1.1" xmlns="http://www.w3.org/2000/svg" xmlns:xlink="http://www.w3.org/1999/xlink" x="0px" y="0px"
	 viewBox="0 0 24 24" style="enable-background:new 0 0 24 24;" xml:space="preserve">
<style type="text/css">
	.st0{fill:none;stroke:#F15A24;stroke-width:0.1;stroke-miterlimit:10;}
	.st1{fill:none;stroke:#1A1A1A;stroke-width:0.3;stroke-miterlimit:10;}
	.st2{fill:none;stroke:#686868;stroke-width:0.15;stroke-miterlimit:10;}
	.st3{fill:none;stroke:#F15A24;stroke-width:0.0666667;stroke-miterlimit:10;}
	.st4{fill:none;stroke:#1A1A1A;stroke-width:0.2;stroke-miterlimit:10;}
	.st5{fill:none;stroke:#686868;stroke-width:0.1;stroke-miterlimit:10;}
	.st6{fill:none;stroke:#F15A24;stroke-width:0.0666667;stroke-linecap:round;stroke-linejoin:round;stroke-miterlimit:10;}
	.st7{fill:none;stroke:#1A1A1A;stroke-width:0.2;stroke-linecap:round;stroke-linejoin:round;stroke-miterlimit:10;}
	.st8{fill:none;stroke:#686868;stroke-width:0.1;stroke-linecap:round;stroke-linejoin:round;stroke-miterlimit:10;}
	.st9{stroke:#F15A24;stroke-width:0.0666667;stroke-miterlimit:10;}
	.st10{stroke:#1A1A1A;stroke-width:0.2;stroke-miterlimit:10;}
	.st11{stroke:#686868;stroke-width:0.1;stroke-miterlimit:10;}
	.st12{fill:none;stroke:#FFFFFF;stroke-width:0.5;stroke-miterlimit:10;}
	.st13{fill:none;stroke:#000000;stroke-linecap:round;stroke-linejoin:round;stroke-miterlimit:10;}
	.st14{fill:none;stroke:#FFFFFF;stroke-width:0.5;stroke-linecap:round;stroke-linejoin:round;stroke-miterlimit:10;}
	.st15{fill:#606060;stroke:#000000;stroke-linecap:round;stroke-linejoin:round;stroke-miterlimit:10;}
	.st16{fill:none;stroke:#000000;stroke-width:4;stroke-miterlimit:10;}
	.st17{fill:#FFFFFF;}
	.st18{fill:none;stroke:#FFFFFF;stroke-width:0.1;stroke-miterlimit:10;}
	.st19{fill:none;stroke:#FFFFFF;stroke-width:0.1;stroke-linecap:round;stroke-linejoin:round;stroke-miterlimit:10;}
	.st20{fill:none;stroke:#FFFFFF;stroke-width:0.25;stroke-linecap:round;stroke-linejoin:round;stroke-miterlimit:10;}
	.st21{fill:none;stroke:#FFFFFF;stroke-width:0.25;stroke-miterlimit:10;}
	.st22{fill:none;stroke:#FFFFFF;stroke-linecap:round;stroke-linejoin:round;stroke-miterlimit:10;}
</style>
<g id="Layer_1">
	<g>
		<path d="M3.74985,18.5156689h0.7529294v1.5742188c0,0.4140625,0.3359375,0.75,0.75,0.75h2.9282231
			c0.4140625,0,0.75-0.3359375,0.75-0.75v-1.5742188h2.9057617c0.4140625,0,0.75-0.3359375,0.75-0.75s-0.3359375-0.75-0.75-0.75
			H8.2003508c-0.0068359-0.0001831-0.0125122-0.0039062-0.0193481-0.0039062H5.2527795
			c-0.0068359,0-0.0125122,0.0037231-0.0193481,0.0039062H4.4993615l-0.0019531-2.6054688
			c0.0834961-0.9892578,0.2236328-1.909668,0.425293-2.7973633h6.914063c0.4140625,0,0.75-0.3359375,0.75-0.75
			s-0.3359375-0.75-0.75-0.75H5.3279748C5.435885,9.7705517,5.5594201,9.4067822,5.7034631,9.0107861l1.1708984-3.0615234
			c0.2446289-0.6523438,0.8891602-1.0908203,1.6040044-1.0908203h3.3583984c0.4140625,0,0.75-0.3359375,0.75-0.75
			s-0.3359375-0.75-0.75-0.75H8.4783659c-1.3369145,0-2.5458989,0.8295898-3.0068364,2.0595703L4.2977014,8.4868603
			c-0.3032224,0.8354492-0.5224607,1.5317383-0.6904294,2.190918c-0.0001221,0.0004883,0.0001221,0.0009155,0,0.0014038
			C3.308871,11.8217602,3.1109951,13.0010204,2.99985,14.3472118v3.418457
			C2.99985,18.1797314,3.3357875,18.5156689,3.74985,18.5156689z M7.4310021,19.3398876H6.0027795v-0.8242188h1.4282227V19.3398876z
			"/>
		<path d="M5.38901,14.3135204c0,1.203125,0.9892578,2.1816406,2.2055664,2.1816406s2.2055669-0.9785156,2.2055669-2.1816406
			s-0.9892578-2.1816406-2.2055669-2.1816406S5.38901,13.1103954,5.38901,14.3135204z M8.3001432,14.3135204
			c0,0.3759766-0.3164067,0.6816406-0.7055669,0.6816406S6.88901,14.689497,6.88901,14.3135204
			s0.3164062-0.6816406,0.7055664-0.6816406S8.3001432,13.9375439,8.3001432,14.3135204z"/>
		<path d="M15.4495573,21.0000439c0.4140625,0,0.749999-0.3359375,0.749999-0.75v-9.1772461
			c0-0.4140625-0.3359365-0.75-0.749999-0.75s-0.75,0.3359375-0.75,0.75v9.1772461
			C14.6995573,20.6641064,15.0354948,21.0000439,15.4495573,21.0000439z"/>
		<path d="M18.4651814,15.6611767v-5.5039062c0-1.5576172-1.309082-1.9321289-2.265625-2.0224609V5.2466259h2.4829102
			c0.1118164,0,0.2216797-0.0249023,0.3227539-0.0727539l1.5673828-0.746582c0.3735352-0.1782227,0.5327148-0.6259766,0.3544922-1
			c-0.1787109-0.3735352-0.6235352-0.5322266-1-0.3544922l-1.4140625,0.6738281h-3.0634756c-0.4140625,0-0.75,0.3359375-0.75,0.75
			v4.3598633c0,0.4140625,0.3359375,0.75,0.75,0.75c1.515624,0,1.515624,0.3447266,1.515624,0.5507812v5.5039062
			c0,0.4140625,0.3359375,0.75,0.75,0.75S18.4651814,16.0752392,18.4651814,15.6611767z"/>
	</g>
</g>
<g id="Layer_2">
</g>
<g id="Layer_3">
</g>
<g id="Layer_4">
</g>
<g id="Layer_5">
</g>
<g id="Layer_6">
</g>
</svg>
