<?xml version="1.0" encoding="utf-8"?>
<!-- Generator: Adobe Illustrator 27.3.1, SVG Export Plug-In . SVG Version: 6.00 Build 0)  -->
<svg version="1.1" xmlns="http://www.w3.org/2000/svg" xmlns:xlink="http://www.w3.org/1999/xlink" x="0px" y="0px"
	 viewBox="0 0 24 24" style="enable-background:new 0 0 24 24;" xml:space="preserve">
<style type="text/css">
	.st0{fill:none;stroke:#F15A24;stroke-width:0.1;stroke-miterlimit:10;}
	.st1{fill:none;stroke:#1A1A1A;stroke-width:0.3;stroke-miterlimit:10;}
	.st2{fill:none;stroke:#686868;stroke-width:0.15;stroke-miterlimit:10;}
	.st3{fill:none;stroke:#F15A24;stroke-width:0.0666667;stroke-miterlimit:10;}
	.st4{fill:none;stroke:#1A1A1A;stroke-width:0.2;stroke-miterlimit:10;}
	.st5{fill:none;stroke:#686868;stroke-width:0.1;stroke-miterlimit:10;}
	.st6{fill:none;stroke:#F15A24;stroke-width:0.0666667;stroke-linecap:round;stroke-linejoin:round;stroke-miterlimit:10;}
	.st7{fill:none;stroke:#1A1A1A;stroke-width:0.2;stroke-linecap:round;stroke-linejoin:round;stroke-miterlimit:10;}
	.st8{fill:none;stroke:#686868;stroke-width:0.1;stroke-linecap:round;stroke-linejoin:round;stroke-miterlimit:10;}
	.st9{stroke:#F15A24;stroke-width:0.0666667;stroke-miterlimit:10;}
	.st10{stroke:#1A1A1A;stroke-width:0.2;stroke-miterlimit:10;}
	.st11{stroke:#686868;stroke-width:0.1;stroke-miterlimit:10;}
	.st12{fill:none;stroke:#FFFFFF;stroke-width:0.5;stroke-miterlimit:10;}
	.st13{fill:none;stroke:#000000;stroke-linecap:round;stroke-linejoin:round;stroke-miterlimit:10;}
	.st14{fill:none;stroke:#FFFFFF;stroke-width:0.5;stroke-linecap:round;stroke-linejoin:round;stroke-miterlimit:10;}
	.st15{fill:#606060;stroke:#000000;stroke-linecap:round;stroke-linejoin:round;stroke-miterlimit:10;}
	.st16{fill:none;stroke:#000000;stroke-width:4;stroke-miterlimit:10;}
	.st17{fill:#FFFFFF;}
	.st18{fill:none;stroke:#FFFFFF;stroke-width:0.1;stroke-miterlimit:10;}
	.st19{fill:none;stroke:#FFFFFF;stroke-width:0.1;stroke-linecap:round;stroke-linejoin:round;stroke-miterlimit:10;}
	.st20{fill:none;stroke:#FFFFFF;stroke-width:0.25;stroke-linecap:round;stroke-linejoin:round;stroke-miterlimit:10;}
	.st21{fill:none;stroke:#FFFFFF;stroke-width:0.25;stroke-miterlimit:10;}
	.st22{fill:none;stroke:#FFFFFF;stroke-linecap:round;stroke-linejoin:round;stroke-miterlimit:10;}
</style>
<g id="Layer_1">
	<g>
		<path d="M21.2553711,9.1928711h-1.4760742V6.2563477c0-1.2495117-1.0166016-2.265625-2.2661133-2.265625
			s-2.265625,1.0161133-2.265625,2.265625v2.9355469H8.7529297V6.2563477c0-1.2495117-1.0166016-2.265625-2.2661133-2.265625
			s-2.2661133,1.0161133-2.2661133,2.265625v2.9365234H2.7446289c-0.4140625,0-0.75,0.3359375-0.75,0.75v4.1142578
			c0,0.4140625,0.3359375,0.75,0.75,0.75h1.4760742v2.9360352c0,1.2495117,1.0166016,2.2661133,2.2661133,2.2661133
			s2.2661133-1.0166016,2.2661133-2.2661133v-2.940918h6.4946289v2.940918c0,1.2495117,1.0161133,2.2661133,2.265625,2.2661133
			s2.2661133-1.0166016,2.2661133-2.2661133v-2.9360352h1.4760742c0.4140625,0,0.75-0.3359375,0.75-0.75V9.9428711
			C22.0053711,9.5288086,21.6694336,9.1928711,21.2553711,9.1928711z M3.4946289,13.3071289v-2.6142578h0.7260742v2.6142578
			H3.4946289z M6.4868164,18.5092773c-0.4223633,0-0.7661133-0.34375-0.7661133-0.7661133v-3.6860352V9.9428711V6.2563477
			c0-0.4223633,0.34375-0.765625,0.7661133-0.765625s0.7661133,0.3432617,0.7661133,0.765625V9.932251
			c-0.000061,0.003418-0.0019531,0.0062256-0.0019531,0.0096436s0.0018921,0.0062256,0.0019531,0.0096436v4.0910645
			c-0.000061,0.003418-0.0019531,0.0062256-0.0019531,0.0096436s0.0018921,0.0062256,0.0019531,0.0096436v3.6812744
			C7.2529297,18.1655273,6.9091797,18.5092773,6.4868164,18.5092773z M8.7529297,13.3022461v-2.6103516h6.4946289v2.6103516
			H8.7529297z M18.2792969,17.7431641c0,0.4223633-0.34375,0.7661133-0.7661133,0.7661133s-0.765625-0.34375-0.765625-0.7661133
			V6.2563477c0-0.4223633,0.3432617-0.765625,0.765625-0.765625s0.7661133,0.3432617,0.7661133,0.765625v3.6865234v4.1142578
			V17.7431641z M20.5053711,13.3071289h-0.7260742v-2.6142578h0.7260742V13.3071289z"/>
	</g>
</g>
<g id="Layer_2">
</g>
<g id="Layer_3">
</g>
<g id="Layer_4">
</g>
<g id="Layer_5">
</g>
<g id="Layer_6">
</g>
</svg>
