<?xml version="1.0" encoding="utf-8"?>
<!-- Generator: Adobe Illustrator 27.3.1, SVG Export Plug-In . SVG Version: 6.00 Build 0)  -->
<svg version="1.1" xmlns="http://www.w3.org/2000/svg" xmlns:xlink="http://www.w3.org/1999/xlink" x="0px" y="0px"
	 viewBox="0 0 24 24" style="enable-background:new 0 0 24 24;" xml:space="preserve">
<style type="text/css">
	.st0{fill:none;stroke:#F15A24;stroke-width:0.1;stroke-miterlimit:10;}
	.st1{fill:none;stroke:#1A1A1A;stroke-width:0.3;stroke-miterlimit:10;}
	.st2{fill:none;stroke:#686868;stroke-width:0.15;stroke-miterlimit:10;}
	.st3{fill:none;stroke:#F15A24;stroke-width:0.0666667;stroke-miterlimit:10;}
	.st4{fill:none;stroke:#1A1A1A;stroke-width:0.2;stroke-miterlimit:10;}
	.st5{fill:none;stroke:#686868;stroke-width:0.1;stroke-miterlimit:10;}
	.st6{fill:none;stroke:#F15A24;stroke-width:0.0666667;stroke-linecap:round;stroke-linejoin:round;stroke-miterlimit:10;}
	.st7{fill:none;stroke:#1A1A1A;stroke-width:0.2;stroke-linecap:round;stroke-linejoin:round;stroke-miterlimit:10;}
	.st8{fill:none;stroke:#686868;stroke-width:0.1;stroke-linecap:round;stroke-linejoin:round;stroke-miterlimit:10;}
	.st9{stroke:#F15A24;stroke-width:0.0666667;stroke-miterlimit:10;}
	.st10{stroke:#1A1A1A;stroke-width:0.2;stroke-miterlimit:10;}
	.st11{stroke:#686868;stroke-width:0.1;stroke-miterlimit:10;}
	.st12{fill:none;stroke:#FFFFFF;stroke-width:0.5;stroke-miterlimit:10;}
	.st13{fill:none;stroke:#000000;stroke-linecap:round;stroke-linejoin:round;stroke-miterlimit:10;}
	.st14{fill:none;stroke:#FFFFFF;stroke-width:0.5;stroke-linecap:round;stroke-linejoin:round;stroke-miterlimit:10;}
	.st15{fill:#606060;stroke:#000000;stroke-linecap:round;stroke-linejoin:round;stroke-miterlimit:10;}
	.st16{fill:none;stroke:#000000;stroke-width:4;stroke-miterlimit:10;}
	.st17{fill:#FFFFFF;}
	.st18{fill:none;stroke:#FFFFFF;stroke-width:0.1;stroke-miterlimit:10;}
	.st19{fill:none;stroke:#FFFFFF;stroke-width:0.1;stroke-linecap:round;stroke-linejoin:round;stroke-miterlimit:10;}
	.st20{fill:none;stroke:#FFFFFF;stroke-width:0.25;stroke-linecap:round;stroke-linejoin:round;stroke-miterlimit:10;}
	.st21{fill:none;stroke:#FFFFFF;stroke-width:0.25;stroke-miterlimit:10;}
	.st22{fill:none;stroke:#FFFFFF;stroke-linecap:round;stroke-linejoin:round;stroke-miterlimit:10;}
</style>
<g id="Layer_1">
	<g>
		<path d="M3.3984601,13.3545294l1.0888674,0.5778198v3.098937c0,0.2880859,0.1650391,0.5512695,0.425293,0.6757812
			l6.6972656,3.21875c0.1030273,0.0498047,0.2138672,0.0742188,0.324707,0.0742188
			c0.1391602,0,0.277832-0.0385742,0.3994141-0.1152344c0.2182617-0.137207,0.3505859-0.3769531,0.3505859-0.6347656v-6.800292
			c0-0.0805054-0.0159302-0.1577148-0.0401611-0.2318115c-0.0015869-0.0048218-0.0043945-0.0089722-0.0060425-0.0137329
			c-0.0278931-0.079895-0.0703125-0.1520996-0.1228638-0.2180176c-0.0088501-0.0111694-0.0170898-0.0217285-0.0266113-0.0324097
			c-0.0610962-0.0684204-0.1303101-0.1300049-0.2149658-0.1729736l-2.1377563-1.0844727
			c0.0304565-0.0012207,0.0603027-0.0007935,0.0908813-0.0024414c0.1450195-0.0083008,0.284668-0.0581055,0.4023438-0.144043
			c1.5644531-1.1459961,2.3061523-2.7675781,1.9833984-4.3378911c-0.2260742-1.1025391-0.9760742-1.9541016-1.9106445-2.1699219
			C9.8945541,4.8535523,9.064476,5.1528687,8.3745346,5.8638062C7.3940659,5.7529664,6.5654526,6.0474,6.0586166,6.70365
			C5.5750351,7.3296876,5.4825058,8.2068853,5.748558,9.0546637L4.974144,9.3374395
			C4.7682114,9.4126348,4.6206284,9.5704107,4.5432358,9.7582769l-1.4465334,2.5654907
			c-0.0991211,0.1757812-0.1235352,0.3847656-0.0664062,0.5791016C3.0869367,13.0967169,3.2197492,13.2598028,3.3984601,13.3545294z
			 M4.7812729,12.3901739l0.7573242-1.3432617l5.3950195,2.7387695l-0.7275391,1.4833984L4.7812729,12.3901739z
			 M5.9873276,16.5596066v-1.8312368l4.199707,2.2286978c0.109375,0.0581055,0.2299805,0.0874023,0.3515625,0.0874023
			c0.0776367,0,0.1557617-0.012207,0.2314453-0.0366211c0.1784058-0.0578003,0.3223877-0.1851807,0.4145508-0.3477783v2.397583
			L5.9873276,16.5596066z M7.2456284,7.6201539c0.1679688-0.2172852,0.4477539-0.28125,0.7197266-0.28125
			c0.1948242,0,0.3857422,0.0327148,0.5288086,0.065918C8.783226,7.472693,9.0791245,7.3642945,9.2583237,7.1323609
			c0.2158203-0.2797852,0.6445312-0.734375,1.105957-0.6289062c0.359375,0.0830078,0.6723633,0.4887695,0.7792969,1.0102539
			c0.1899414,0.9243169-0.2651367,1.9165044-1.2226562,2.6894536c-1.1226807,0.0182495-2.0518188-0.4197388-2.527771-1.1542969
			C7.3660507,9.0104742,7.3421249,8.9713507,7.3089218,8.9393072C7.3015976,8.9260626,7.288353,8.9167852,7.2812729,8.9033575
			C7.0327377,8.430213,7.0180893,7.9145875,7.2456284,7.6201539z"/>
		<path d="M20.2500229,9.1948614h-1.0029297V8.4648809c0-0.4140625-0.3359375-0.7500005-0.75-0.7500005H18.114769V6.3574586
			c0-0.4140625-0.3359375-0.75-0.75-0.75h-0.9910889c-0.4401245-0.6156616-0.7489014-1.2887573-0.9024658-2.0131834
			c-0.0864258-0.4052734-0.4853516-0.6630859-0.8896484-0.578125c-0.4052734,0.0864258-0.6640625,0.484375-0.578125,0.8896484
			c0.1274414,0.5986326,0.331543,1.1704099,0.6108398,1.7119138c-0.0343018,0.0056763-0.0631714,0.0238037-0.0957642,0.0339355
			c-0.0372314,0.0115967-0.0734253,0.0213013-0.1079102,0.038269c-0.0507202,0.0249023-0.0941162,0.0576782-0.1376343,0.0928345
			c-0.02771,0.0224609-0.0568237,0.0408936-0.0811157,0.0670166c-0.0419312,0.0449829-0.0725708,0.0976562-0.1025391,0.1519775
			c-0.0146484,0.0265503-0.0343018,0.0488281-0.0457153,0.0772095c-0.03479,0.0864258-0.0562744,0.1795044-0.0562744,0.2785034
			c0,0.4140625,0.3359375,0.75,0.75,0.75h1.253418h0.6240234v0.6074219h-1.8774414c-0.4140625,0-0.75,0.335938-0.75,0.7500005
			s0.3359375,0.75,0.75,0.75h2.6274414h0.3823242v10.2646475h-3.0097656c-0.4140625,0-0.75,0.3359375-0.75,0.75
			s0.3359375,0.75,0.75,0.75h3.7597656c0.4140625,0,0.75-0.3359375,0.75-0.75v-5.3691397h1.0029297
			c0.4140625,0,0.75-0.3359375,0.75-0.75V9.9448614C21.0000229,9.5307989,20.6640854,9.1948614,20.2500229,9.1948614z
			 M19.5000229,13.3603888h-0.2470703v-2.6655273h0.2470703V13.3603888z"/>
		<path d="M14.7373276,15.6758184c-0.4140625,0-0.75,0.3359365-0.75,0.749999s0.3359375,0.75,0.75,0.75h1.7631836
			c0.4140625,0,0.75-0.3359375,0.75-0.75v-4.3984365c0-0.4140625-0.3359375-0.75-0.75-0.75h-1.7631836
			c-0.4140625,0-0.75,0.3359375-0.75,0.75s0.3359375,0.75,0.75,0.75h1.0131836v2.8984375H14.7373276z"/>
	</g>
</g>
<g id="Layer_2">
</g>
<g id="Layer_3">
</g>
<g id="Layer_4">
</g>
<g id="Layer_5">
</g>
<g id="Layer_6">
</g>
</svg>
