<?xml version="1.0" encoding="utf-8"?>
<!-- Generator: Adobe Illustrator 27.3.1, SVG Export Plug-In . SVG Version: 6.00 Build 0)  -->
<svg version="1.1" xmlns="http://www.w3.org/2000/svg" xmlns:xlink="http://www.w3.org/1999/xlink" x="0px" y="0px"
	 viewBox="0 0 24 24" style="enable-background:new 0 0 24 24;" xml:space="preserve">
<style type="text/css">
	.st0{fill:none;stroke:#F15A24;stroke-width:0.1;stroke-miterlimit:10;}
	.st1{fill:none;stroke:#1A1A1A;stroke-width:0.3;stroke-miterlimit:10;}
	.st2{fill:none;stroke:#686868;stroke-width:0.15;stroke-miterlimit:10;}
	.st3{fill:none;stroke:#F15A24;stroke-width:0.0666667;stroke-miterlimit:10;}
	.st4{fill:none;stroke:#1A1A1A;stroke-width:0.2;stroke-miterlimit:10;}
	.st5{fill:none;stroke:#686868;stroke-width:0.1;stroke-miterlimit:10;}
	.st6{fill:none;stroke:#F15A24;stroke-width:0.0666667;stroke-linecap:round;stroke-linejoin:round;stroke-miterlimit:10;}
	.st7{fill:none;stroke:#1A1A1A;stroke-width:0.2;stroke-linecap:round;stroke-linejoin:round;stroke-miterlimit:10;}
	.st8{fill:none;stroke:#686868;stroke-width:0.1;stroke-linecap:round;stroke-linejoin:round;stroke-miterlimit:10;}
	.st9{stroke:#F15A24;stroke-width:0.0666667;stroke-miterlimit:10;}
	.st10{stroke:#1A1A1A;stroke-width:0.2;stroke-miterlimit:10;}
	.st11{stroke:#686868;stroke-width:0.1;stroke-miterlimit:10;}
	.st12{fill:none;stroke:#FFFFFF;stroke-width:0.5;stroke-miterlimit:10;}
	.st13{fill:none;stroke:#000000;stroke-linecap:round;stroke-linejoin:round;stroke-miterlimit:10;}
	.st14{fill:none;stroke:#FFFFFF;stroke-width:0.5;stroke-linecap:round;stroke-linejoin:round;stroke-miterlimit:10;}
	.st15{fill:#606060;stroke:#000000;stroke-linecap:round;stroke-linejoin:round;stroke-miterlimit:10;}
	.st16{fill:none;stroke:#000000;stroke-width:4;stroke-miterlimit:10;}
	.st17{fill:#FFFFFF;}
	.st18{fill:none;stroke:#FFFFFF;stroke-width:0.1;stroke-miterlimit:10;}
	.st19{fill:none;stroke:#FFFFFF;stroke-width:0.1;stroke-linecap:round;stroke-linejoin:round;stroke-miterlimit:10;}
	.st20{fill:none;stroke:#FFFFFF;stroke-width:0.25;stroke-linecap:round;stroke-linejoin:round;stroke-miterlimit:10;}
	.st21{fill:none;stroke:#FFFFFF;stroke-width:0.25;stroke-miterlimit:10;}
	.st22{fill:none;stroke:#FFFFFF;stroke-linecap:round;stroke-linejoin:round;stroke-miterlimit:10;}
</style>
<g id="Layer_1">
	<g>
		<path d="M12,14.9736328c-4.847168,0-9,2.9013672-9,5.2763672C3,20.6640625,3.3359375,21,3.75,21h16.5
			c0.4140625,0,0.75-0.3359375,0.75-0.75C21,17.875,16.847168,14.9736328,12,14.9736328z M4.7817383,19.5
			c0.875-1.3076172,3.7001953-3.0263672,7.2182617-3.0263672s6.3432617,1.71875,7.2182617,3.0263672H4.7817383z"/>
		<path d="M12,14.2597656c2.8950195,0,5.25-2.3535156,5.25-5.246582V8.9379883V5.253418C17.25,4.0107422,16.2407227,3,15,3
			H9.0151367c-1.2407227,0-2.25,1.0107422-2.25,2.253418v3.6845703c0,0.0130615,0.0067749,0.0239868,0.0074463,0.0368652
			C6.7719116,8.987915,6.7651367,9.0001221,6.7651367,9.0131836C6.7651367,11.90625,9.1132812,14.2597656,12,14.2597656z
			 M12,12.7597656c-1.8120117,0-3.3266602-1.3007812-3.6645508-3.0717773h7.3535156
			C15.3701172,11.4326172,13.8374023,12.7597656,12,12.7597656z M8.2651367,5.253418c0-0.4155273,0.3364258-0.753418,0.75-0.753418
			H15c0.4135742,0,0.75,0.3378906,0.75,0.753418v2.9345703H8.2651367V5.253418z"/>
		<path d="M12.980957,5.59375h-0.2231445V5.3681641c0-0.4140625-0.3359375-0.75-0.75-0.75s-0.75,0.3359375-0.75,0.75V5.59375
			h-0.2236328c-0.4140625,0-0.75,0.3359375-0.75,0.75s0.3359375,0.75,0.75,0.75h0.2236328v0.2260742
			c0,0.4140625,0.3359375,0.75,0.75,0.75s0.75-0.3359375,0.75-0.75V7.09375h0.2231445c0.4140625,0,0.75-0.3359375,0.75-0.75
			S13.3950195,5.59375,12.980957,5.59375z"/>
	</g>
</g>
<g id="Layer_2">
</g>
<g id="Layer_3">
</g>
<g id="Layer_4">
</g>
<g id="Layer_5">
</g>
<g id="Layer_6">
</g>
</svg>
