<?xml version="1.0" encoding="utf-8"?>
<!-- Generator: Adobe Illustrator 27.3.1, SVG Export Plug-In . SVG Version: 6.00 Build 0)  -->
<svg version="1.1" xmlns="http://www.w3.org/2000/svg" xmlns:xlink="http://www.w3.org/1999/xlink" x="0px" y="0px"
	 viewBox="0 0 24 24" style="enable-background:new 0 0 24 24;" xml:space="preserve">
<style type="text/css">
	.st0{fill:none;stroke:#F15A24;stroke-width:0.1;stroke-miterlimit:10;}
	.st1{fill:none;stroke:#1A1A1A;stroke-width:0.3;stroke-miterlimit:10;}
	.st2{fill:none;stroke:#686868;stroke-width:0.15;stroke-miterlimit:10;}
	.st3{fill:none;stroke:#F15A24;stroke-width:0.0666667;stroke-miterlimit:10;}
	.st4{fill:none;stroke:#1A1A1A;stroke-width:0.2;stroke-miterlimit:10;}
	.st5{fill:none;stroke:#686868;stroke-width:0.1;stroke-miterlimit:10;}
	.st6{fill:none;stroke:#F15A24;stroke-width:0.0666667;stroke-linecap:round;stroke-linejoin:round;stroke-miterlimit:10;}
	.st7{fill:none;stroke:#1A1A1A;stroke-width:0.2;stroke-linecap:round;stroke-linejoin:round;stroke-miterlimit:10;}
	.st8{fill:none;stroke:#686868;stroke-width:0.1;stroke-linecap:round;stroke-linejoin:round;stroke-miterlimit:10;}
	.st9{stroke:#F15A24;stroke-width:0.0666667;stroke-miterlimit:10;}
	.st10{stroke:#1A1A1A;stroke-width:0.2;stroke-miterlimit:10;}
	.st11{stroke:#686868;stroke-width:0.1;stroke-miterlimit:10;}
	.st12{fill:none;stroke:#FFFFFF;stroke-width:0.5;stroke-miterlimit:10;}
	.st13{fill:none;stroke:#000000;stroke-linecap:round;stroke-linejoin:round;stroke-miterlimit:10;}
	.st14{fill:none;stroke:#FFFFFF;stroke-width:0.5;stroke-linecap:round;stroke-linejoin:round;stroke-miterlimit:10;}
	.st15{fill:#606060;stroke:#000000;stroke-linecap:round;stroke-linejoin:round;stroke-miterlimit:10;}
	.st16{fill:none;stroke:#000000;stroke-width:4;stroke-miterlimit:10;}
	.st17{fill:#FFFFFF;}
	.st18{fill:none;stroke:#FFFFFF;stroke-width:0.1;stroke-miterlimit:10;}
	.st19{fill:none;stroke:#FFFFFF;stroke-width:0.1;stroke-linecap:round;stroke-linejoin:round;stroke-miterlimit:10;}
	.st20{fill:none;stroke:#FFFFFF;stroke-width:0.25;stroke-linecap:round;stroke-linejoin:round;stroke-miterlimit:10;}
	.st21{fill:none;stroke:#FFFFFF;stroke-width:0.25;stroke-miterlimit:10;}
	.st22{fill:none;stroke:#FFFFFF;stroke-linecap:round;stroke-linejoin:round;stroke-miterlimit:10;}
</style>
<g id="Layer_1">
	<g>
		<path d="M12,2.2504883c-5.3759766,0-9.75,4.3789062-9.75,9.7612305c0,3.0913086,1.4140625,5.9316406,3.8803711,7.7924805
			c0.331543,0.2495117,0.800293,0.1835938,1.050293-0.1469727c0.2495117-0.3305664,0.1835938-0.8007812-0.1469727-1.050293
			C4.9467773,17.0322266,3.75,14.628418,3.75,12.0117188c0-4.5551758,3.7011719-8.2612305,8.25-8.2612305
			s8.25,3.7060547,8.25,8.2612305c0,4.1513672-3.0415039,7.6933594-7.0610352,8.237793
			c-0.0708008,0.012207-0.1992188-0.0302734-0.3017578-0.1220703c-0.0913086-0.0810547-0.1376953-0.1772461-0.1376953-0.2861328
			v-0.8491211h0.8457031c0.4140625,0,0.75-0.3359375,0.75-0.75c0-0.3937378-0.3068848-0.7077026-0.692749-0.7384644
			c1.7062378-0.6541748,2.9261475-2.2977295,2.9261475-4.2312622v-3.1281738
			c0.4003906-0.0155029,0.722168-0.34021,0.722168-0.7443848c0-0.4140625-0.3359375-0.75-0.75-0.75h-0.722168h-0.6669922v-2.9375
			c0-0.4140625-0.3359375-0.75-0.75-0.75s-0.75,0.3359375-0.75,0.75v2.9375h-3.3242188v-2.9375
			c0-0.4140625-0.3359375-0.75-0.75-0.75s-0.75,0.3359375-0.75,0.75v2.9375H8.1704102H7.449707
			c-0.4140625,0-0.75,0.3359375-0.75,0.75c0,0.4036865,0.3209839,0.7277832,0.7207031,0.7440796v3.128479
			c0,1.9335327,1.2199097,3.5770874,2.9261475,4.2312622c-0.3858643,0.0307617-0.692749,0.3447266-0.692749,0.7384644
			c0,0.4140625,0.3359375,0.75,0.75,0.75h0.8457031v0.8491211c0,0.5400391,0.2275391,1.0395508,0.640625,1.4072266
			c0.3603516,0.3203125,0.8256836,0.5009766,1.2856445,0.5009766c0.0673828,0,0.1347656-0.0039062,0.2011719-0.0117188
			C18.1503906,21.0913086,21.75,16.9101562,21.75,12.0117188C21.75,6.6293945,17.3759766,2.2504883,12,2.2504883z
			 M8.9204102,13.2724609v-3.1225586h6.1582031v3.1225586c0,1.6772461-1.3647461,3.0419922-3.0419922,3.0419922h-0.0742188
			C10.2851562,16.3144531,8.9204102,14.949707,8.9204102,13.2724609z"/>
		<path d="M12.6791992,15.5288086l0.9130859-1.9599609c0.1083984-0.2324219,0.090332-0.5039062-0.0473633-0.7202148
			c-0.1376953-0.2158203-0.3759766-0.3466797-0.6323242-0.3466797h-0.612793l0.456543-0.9145508
			c0.1850586-0.3706055,0.034668-0.8208008-0.3359375-1.0058594c-0.3691406-0.1845703-0.8208008-0.0351562-1.0058594,0.3359375
			l-0.9985352,1.9995117c-0.1162109,0.2324219-0.1035156,0.5083008,0.0332031,0.7294922s0.3779297,0.3554688,0.6376953,0.3554688
			h0.6489258l-0.4160156,0.8935547c-0.175293,0.3754883-0.0126953,0.8217773,0.3632812,0.996582
			c0.1020508,0.0478516,0.2099609,0.0703125,0.315918,0.0703125C12.2817383,15.9624023,12.5522461,15.8022461,12.6791992,15.5288086
			z"/>
	</g>
</g>
<g id="Layer_2">
</g>
<g id="Layer_3">
</g>
<g id="Layer_4">
</g>
<g id="Layer_5">
</g>
<g id="Layer_6">
</g>
</svg>
