<?xml version="1.0" encoding="utf-8"?>
<!-- Generator: Adobe Illustrator 27.3.1, SVG Export Plug-In . SVG Version: 6.00 Build 0)  -->
<svg version="1.1" xmlns="http://www.w3.org/2000/svg" xmlns:xlink="http://www.w3.org/1999/xlink" x="0px" y="0px"
	 viewBox="0 0 24 24" style="enable-background:new 0 0 24 24;" xml:space="preserve">
<style type="text/css">
	.st0{fill:none;stroke:#F15A24;stroke-width:0.1;stroke-miterlimit:10;}
	.st1{fill:none;stroke:#1A1A1A;stroke-width:0.3;stroke-miterlimit:10;}
	.st2{fill:none;stroke:#686868;stroke-width:0.15;stroke-miterlimit:10;}
	.st3{fill:none;stroke:#F15A24;stroke-width:0.0666667;stroke-miterlimit:10;}
	.st4{fill:none;stroke:#1A1A1A;stroke-width:0.2;stroke-miterlimit:10;}
	.st5{fill:none;stroke:#686868;stroke-width:0.1;stroke-miterlimit:10;}
	.st6{fill:none;stroke:#F15A24;stroke-width:0.0666667;stroke-linecap:round;stroke-linejoin:round;stroke-miterlimit:10;}
	.st7{fill:none;stroke:#1A1A1A;stroke-width:0.2;stroke-linecap:round;stroke-linejoin:round;stroke-miterlimit:10;}
	.st8{fill:none;stroke:#686868;stroke-width:0.1;stroke-linecap:round;stroke-linejoin:round;stroke-miterlimit:10;}
	.st9{stroke:#F15A24;stroke-width:0.0666667;stroke-miterlimit:10;}
	.st10{stroke:#1A1A1A;stroke-width:0.2;stroke-miterlimit:10;}
	.st11{stroke:#686868;stroke-width:0.1;stroke-miterlimit:10;}
	.st12{fill:none;stroke:#FFFFFF;stroke-width:0.5;stroke-miterlimit:10;}
	.st13{fill:none;stroke:#000000;stroke-linecap:round;stroke-linejoin:round;stroke-miterlimit:10;}
	.st14{fill:none;stroke:#FFFFFF;stroke-width:0.5;stroke-linecap:round;stroke-linejoin:round;stroke-miterlimit:10;}
	.st15{fill:#606060;stroke:#000000;stroke-linecap:round;stroke-linejoin:round;stroke-miterlimit:10;}
	.st16{fill:none;stroke:#000000;stroke-width:4;stroke-miterlimit:10;}
	.st17{fill:#FFFFFF;}
	.st18{fill:none;stroke:#FFFFFF;stroke-width:0.1;stroke-miterlimit:10;}
	.st19{fill:none;stroke:#FFFFFF;stroke-width:0.1;stroke-linecap:round;stroke-linejoin:round;stroke-miterlimit:10;}
	.st20{fill:none;stroke:#FFFFFF;stroke-width:0.25;stroke-linecap:round;stroke-linejoin:round;stroke-miterlimit:10;}
	.st21{fill:none;stroke:#FFFFFF;stroke-width:0.25;stroke-miterlimit:10;}
	.st22{fill:none;stroke:#FFFFFF;stroke-linecap:round;stroke-linejoin:round;stroke-miterlimit:10;}
</style>
<g id="Layer_1">
	<g>
		<path d="M7.7651668,21c2.3818355,0,4.3691401-1.8657227,4.5249019-4.2475586l0.2387695-3.6533203
			c0.0131836-0.2070312-0.0595703-0.4101562-0.2011719-0.5615234s-0.3398438-0.2373047-0.5473633-0.2373047H8.514678V7.7529297
			h1.2104492c1.1713867,0,2.1245117-0.953125,2.1245117-2.125V3.75c0-0.4140625-0.3359375-0.75-0.75-0.75H4.4306941
			C4.0166316,3,3.6806939,3.3359375,3.6806939,3.75v1.8779297c0,1.171875,0.9531252,2.125,2.124512,2.125h1.2094727v4.5473633
			H3.7500298c-0.2075195,0-0.4057617,0.0859375-0.5473633,0.2373047s-0.2143555,0.3544922-0.2011719,0.5615234l0.2387695,3.6533203
			C3.3960259,19.1342773,5.3833308,21,7.7651668,21z M5.1806941,5.6279297V4.5h5.1689448v1.1279297
			c0,0.3447266-0.2802734,0.625-0.6245117,0.625H5.8052058C5.4609675,6.2529297,5.1806941,5.9726562,5.1806941,5.6279297z
			 M7.7598567,13.800293c0.001709,0,0.0031128,0.0009766,0.0048218,0.0009766s0.0031128-0.0009766,0.0048218-0.0009766h3.2100215
			l-0.1865234,2.8544922C10.6889944,18.25,9.3589163,19.5,7.7651668,19.5s-2.9238281-1.25-3.027832-2.8452148L4.5508113,13.800293
			H7.7598567z"/>
		<path d="M13.6235647,8.0288086h5.3129892c0.0238647,0,0.0440063-0.0114136,0.0673218-0.0136108l-2.8134155,2.7138062
			c-0.1464844,0.1416016-0.2294931,0.3364258-0.2294931,0.5400391v2.7944336h-0.7416992c-0.4140625,0-0.75,0.3359375-0.75,0.75
			V20.25c0,0.4140625,0.3359375,0.75,0.75,0.75h2.9833994c0.4140625,0,0.75-0.3359375,0.75-0.75v-5.4365234
			c0-0.4140625-0.3359375-0.75-0.75-0.75H17.460968v-2.4755859l3.3095703-3.1923828
			c0.1464844-0.1416016,0.2294922-0.3364258,0.2294922-0.5400391v-2.480957c0-0.4140625-0.3359375-0.75-0.75-0.75H19.686554V3.75
			c0-0.4140625-0.3359375-0.75-0.75-0.75h-5.3129892c-0.4140625,0-0.75,0.3359375-0.75,0.75v3.5288086
			C12.8735647,7.6928711,13.2095022,8.0288086,13.6235647,8.0288086z M17.4526672,19.5h-1.4833994v-3.9365234h0.7199717
			c0.0076904,0.0002441,0.0140381,0.0043945,0.0217285,0.0043945s0.0140381-0.0041504,0.0217285-0.0043945h0.7199707V19.5z
			 M14.3735647,4.5h3.8129892v0.8430786c-0.0004883,0.0110474-0.0063477,0.0202637-0.0063477,0.0314331
			s0.0058594,0.0203857,0.0063477,0.0314331v1.1228638h-3.8129892V4.5z"/>
	</g>
</g>
<g id="Layer_2">
</g>
<g id="Layer_3">
</g>
<g id="Layer_4">
</g>
<g id="Layer_5">
</g>
<g id="Layer_6">
</g>
</svg>
