<?xml version="1.0" encoding="utf-8"?>
<!-- Generator: Adobe Illustrator 27.3.1, SVG Export Plug-In . SVG Version: 6.00 Build 0)  -->
<svg version="1.1" xmlns="http://www.w3.org/2000/svg" xmlns:xlink="http://www.w3.org/1999/xlink" x="0px" y="0px"
	 viewBox="0 0 24 24" style="enable-background:new 0 0 24 24;" xml:space="preserve">
<style type="text/css">
	.st0{fill:none;stroke:#F15A24;stroke-width:0.1;stroke-miterlimit:10;}
	.st1{fill:none;stroke:#1A1A1A;stroke-width:0.3;stroke-miterlimit:10;}
	.st2{fill:none;stroke:#686868;stroke-width:0.15;stroke-miterlimit:10;}
	.st3{fill:none;stroke:#F15A24;stroke-width:0.0666667;stroke-miterlimit:10;}
	.st4{fill:none;stroke:#1A1A1A;stroke-width:0.2;stroke-miterlimit:10;}
	.st5{fill:none;stroke:#686868;stroke-width:0.1;stroke-miterlimit:10;}
	.st6{fill:none;stroke:#F15A24;stroke-width:0.0666667;stroke-linecap:round;stroke-linejoin:round;stroke-miterlimit:10;}
	.st7{fill:none;stroke:#1A1A1A;stroke-width:0.2;stroke-linecap:round;stroke-linejoin:round;stroke-miterlimit:10;}
	.st8{fill:none;stroke:#686868;stroke-width:0.1;stroke-linecap:round;stroke-linejoin:round;stroke-miterlimit:10;}
	.st9{stroke:#F15A24;stroke-width:0.0666667;stroke-miterlimit:10;}
	.st10{stroke:#1A1A1A;stroke-width:0.2;stroke-miterlimit:10;}
	.st11{stroke:#686868;stroke-width:0.1;stroke-miterlimit:10;}
	.st12{fill:none;stroke:#FFFFFF;stroke-width:0.5;stroke-miterlimit:10;}
	.st13{fill:none;stroke:#000000;stroke-linecap:round;stroke-linejoin:round;stroke-miterlimit:10;}
	.st14{fill:none;stroke:#FFFFFF;stroke-width:0.5;stroke-linecap:round;stroke-linejoin:round;stroke-miterlimit:10;}
	.st15{fill:#606060;stroke:#000000;stroke-linecap:round;stroke-linejoin:round;stroke-miterlimit:10;}
	.st16{fill:none;stroke:#000000;stroke-width:4;stroke-miterlimit:10;}
	.st17{fill:#FFFFFF;}
	.st18{fill:none;stroke:#FFFFFF;stroke-width:0.1;stroke-miterlimit:10;}
	.st19{fill:none;stroke:#FFFFFF;stroke-width:0.1;stroke-linecap:round;stroke-linejoin:round;stroke-miterlimit:10;}
	.st20{fill:none;stroke:#FFFFFF;stroke-width:0.25;stroke-linecap:round;stroke-linejoin:round;stroke-miterlimit:10;}
	.st21{fill:none;stroke:#FFFFFF;stroke-width:0.25;stroke-miterlimit:10;}
	.st22{fill:none;stroke:#FFFFFF;stroke-linecap:round;stroke-linejoin:round;stroke-miterlimit:10;}
</style>
<g id="Layer_1">
	<g>
		<path d="M11.9995117,7.1342773c-1.496582,0-2.7138672,1.2163086-2.7138672,2.7109375s1.2172852,2.7109375,2.7138672,2.7109375
			s2.7143555-1.2163086,2.7143555-2.7109375S13.4960938,7.1342773,11.9995117,7.1342773z M11.9995117,11.0561523
			c-0.6694336,0-1.2138672-0.543457-1.2138672-1.2109375s0.5444336-1.2109375,1.2138672-1.2109375
			s1.2143555,0.543457,1.2143555,1.2109375S12.6689453,11.0561523,11.9995117,11.0561523z"/>
		<path d="M3.7504883,11.6972656c0.1708984,0,0.3422852-0.0581055,0.4833984-0.1767578l0.5327148-0.449646V20.25
			c0,0.4140625,0.3359375,0.75,0.75,0.75h12.9682617c0.4140625,0,0.75-0.3359375,0.75-0.75v-9.1778564l0.53125,0.4483643
			c0.1411133,0.1186523,0.3125,0.1767578,0.4833984,0.1767578c0.2133789,0,0.425293-0.090332,0.5737305-0.2661133
			c0.2670898-0.3168945,0.2270508-0.7900391-0.0893555-1.0571289l-1.4990234-1.2652588V3.75c0-0.4140625-0.3359375-0.75-0.75-0.75
			h-2.972168c-0.4140625,0-0.75,0.3359375-0.75,0.75v1.5841064L12.484375,3.4111328
			c-0.0238037-0.0200195-0.0531006-0.0263672-0.0784912-0.0429688c-0.041748-0.0274658-0.0823975-0.0516968-0.1279297-0.0700073
			c-0.0457153-0.0184326-0.0906372-0.0300293-0.1382446-0.0391235c-0.0463867-0.0088501-0.0907593-0.0148926-0.1379395-0.0150146
			c-0.0494385-0.0001221-0.0960083,0.0061035-0.1445923,0.015625c-0.0458984,0.0089111-0.0890503,0.0202026-0.1331787,0.0377808
			c-0.0463867,0.0185547-0.0878906,0.0430908-0.1304321,0.071167c-0.0252075,0.0164185-0.0542603,0.0227051-0.0779419,0.0425415
			l-8.2495117,6.9628906c-0.3164062,0.2670898-0.3564453,0.7402344-0.0893555,1.0571289
			C3.3251953,11.6069336,3.5371094,11.6972656,3.7504883,11.6972656z M10.6113281,19.4960938v-4.2514648h2.7768555v4.2514648
			H10.6113281z M17.7348633,19.5h-2.8466797v-5.0053711c0-0.4140625-0.3359375-0.75-0.75-0.75H9.8613281
			c-0.4140625,0-0.75,0.3359375-0.75,0.75V19.5H6.2666016V9.8048096L12,4.9656372l2.9755249,2.5114136
			c0.0101318,0.010437,0.0221558,0.0178833,0.0328979,0.027771l2.7264404,2.3012085V19.5z M16.2626953,4.5h1.472168v3.3427124
			l-1.472168-1.2425537V4.5z"/>
	</g>
</g>
<g id="Layer_2">
</g>
<g id="Layer_3">
</g>
<g id="Layer_4">
</g>
<g id="Layer_5">
</g>
<g id="Layer_6">
</g>
</svg>
