<?xml version="1.0" encoding="utf-8"?>
<!-- Generator: Adobe Illustrator 27.3.1, SVG Export Plug-In . SVG Version: 6.00 Build 0)  -->
<svg version="1.1" xmlns="http://www.w3.org/2000/svg" xmlns:xlink="http://www.w3.org/1999/xlink" x="0px" y="0px"
	 viewBox="0 0 24 24" style="enable-background:new 0 0 24 24;" xml:space="preserve">
<style type="text/css">
	.st0{fill:none;stroke:#F15A24;stroke-width:0.1;stroke-miterlimit:10;}
	.st1{fill:none;stroke:#1A1A1A;stroke-width:0.3;stroke-miterlimit:10;}
	.st2{fill:none;stroke:#686868;stroke-width:0.15;stroke-miterlimit:10;}
	.st3{fill:none;stroke:#F15A24;stroke-width:0.0666667;stroke-miterlimit:10;}
	.st4{fill:none;stroke:#1A1A1A;stroke-width:0.2;stroke-miterlimit:10;}
	.st5{fill:none;stroke:#686868;stroke-width:0.1;stroke-miterlimit:10;}
	.st6{fill:none;stroke:#F15A24;stroke-width:0.0666667;stroke-linecap:round;stroke-linejoin:round;stroke-miterlimit:10;}
	.st7{fill:none;stroke:#1A1A1A;stroke-width:0.2;stroke-linecap:round;stroke-linejoin:round;stroke-miterlimit:10;}
	.st8{fill:none;stroke:#686868;stroke-width:0.1;stroke-linecap:round;stroke-linejoin:round;stroke-miterlimit:10;}
	.st9{stroke:#F15A24;stroke-width:0.0666667;stroke-miterlimit:10;}
	.st10{stroke:#1A1A1A;stroke-width:0.2;stroke-miterlimit:10;}
	.st11{stroke:#686868;stroke-width:0.1;stroke-miterlimit:10;}
	.st12{fill:none;stroke:#FFFFFF;stroke-width:0.5;stroke-miterlimit:10;}
	.st13{fill:none;stroke:#000000;stroke-linecap:round;stroke-linejoin:round;stroke-miterlimit:10;}
	.st14{fill:none;stroke:#FFFFFF;stroke-width:0.5;stroke-linecap:round;stroke-linejoin:round;stroke-miterlimit:10;}
	.st15{fill:#606060;stroke:#000000;stroke-linecap:round;stroke-linejoin:round;stroke-miterlimit:10;}
	.st16{fill:none;stroke:#000000;stroke-width:4;stroke-miterlimit:10;}
	.st17{fill:#FFFFFF;}
	.st18{fill:none;stroke:#FFFFFF;stroke-width:0.1;stroke-miterlimit:10;}
	.st19{fill:none;stroke:#FFFFFF;stroke-width:0.1;stroke-linecap:round;stroke-linejoin:round;stroke-miterlimit:10;}
	.st20{fill:none;stroke:#FFFFFF;stroke-width:0.25;stroke-linecap:round;stroke-linejoin:round;stroke-miterlimit:10;}
	.st21{fill:none;stroke:#FFFFFF;stroke-width:0.25;stroke-miterlimit:10;}
	.st22{fill:none;stroke:#FFFFFF;stroke-linecap:round;stroke-linejoin:round;stroke-miterlimit:10;}
</style>
<g id="Layer_1">
	<g>
		<path d="M12.7646484,4.7770066c0-0.4140625-0.3359375-0.75-0.75-0.75H4.2744141c-1.2407227,0-2.25,1.0092773-2.25,2.25v11.4750977
			c0,1.2407227,1.0092773,2.25,2.25,2.25h7.7402344c0.4140625,0,0.75-0.3359375,0.75-0.75s-0.3359375-0.75-0.75-0.75H4.2744141
			c-0.4135742,0-0.75-0.3364258-0.75-0.75v-4.9627075l5.105957,2.9158325
			c0.4423828,0.2504883,0.9335938,0.3730469,1.4257812,0.3730469c0.6923828,0,1.3862305-0.2436523,1.9443359-0.71875
			l0.5102539-0.449707c0.3105469-0.2739258,0.340332-0.7475586,0.0664062-1.0585938
			c-0.2729492-0.3095703-0.7470703-0.3413086-1.0585938-0.0664062l-0.5004883,0.440918
			c-0.4667969,0.3989258-1.1298828,0.4692383-1.6464844,0.175293l-5.847168-3.3393555V6.2770066
			c0-0.4135742,0.3364258-0.75,0.75-0.75h7.7402344C12.4287109,5.5270066,12.7646484,5.1910691,12.7646484,4.7770066z"/>
		<path d="M6.3686523,9.3453655c0,1.3012695,1.0585938,2.3598633,2.3598633,2.3598633s2.3598633-1.0585938,2.3598633-2.3598633
			s-1.0585938-2.3598628-2.3598633-2.3598628S6.3686523,8.044096,6.3686523,9.3453655z M9.5883789,9.3453655
			c0,0.4741211-0.3857422,0.8598633-0.8598633,0.8598633S7.8686523,9.8194866,7.8686523,9.3453655
			s0.3857422-0.8598633,0.8598633-0.8598633S9.5883789,8.8712444,9.5883789,9.3453655z"/>
		<path d="M14.9833984,7.2613816c-0.3354492,0.2426758-0.4111328,0.7114258-0.168457,1.0473628
			c1.7568359,2.4306641,1.7548828,4.8354492-0.0063477,7.3520508c-0.237793,0.3393555-0.1552734,0.8071289,0.184082,1.0444336
			c0.1308594,0.0917969,0.28125,0.1357422,0.4296875,0.1357422c0.2363281,0,0.4692383-0.1113281,0.6147461-0.3198242
			c2.1430664-3.0620117,2.140625-6.1206055-0.0063477-9.0913086C15.7871094,7.0939012,15.3178711,7.0196824,14.9833984,7.2613816z"
			/>
		<path d="M18.1005859,4.1441941c-0.3339844,0.2456055-0.4052734,0.7148438-0.159668,1.0483398
			c3.3798828,4.5932612,3.3808594,9.0322266,0.0024414,13.5717773c-0.2475586,0.3320312-0.1787109,0.8022461,0.1538086,1.0493164
			c0.1342773,0.1000977,0.2915039,0.1484375,0.4472656,0.1484375c0.2290039,0,0.4550781-0.1044922,0.6020508-0.3022461
			c3.7714844-5.0668945,3.7719727-10.2338867,0.0024414-15.355957C18.902832,3.9698775,18.434082,3.8981001,18.1005859,4.1441941z"
			/>
	</g>
</g>
<g id="Layer_2">
</g>
<g id="Layer_3">
</g>
<g id="Layer_4">
</g>
<g id="Layer_5">
</g>
<g id="Layer_6">
</g>
</svg>
