<?xml version="1.0" encoding="utf-8"?>
<!-- Generator: Adobe Illustrator 27.3.1, SVG Export Plug-In . SVG Version: 6.00 Build 0)  -->
<svg version="1.1" xmlns="http://www.w3.org/2000/svg" xmlns:xlink="http://www.w3.org/1999/xlink" x="0px" y="0px"
	 viewBox="0 0 24 24" style="enable-background:new 0 0 24 24;" xml:space="preserve">
<style type="text/css">
	.st0{fill:none;stroke:#F15A24;stroke-width:0.1;stroke-miterlimit:10;}
	.st1{fill:none;stroke:#1A1A1A;stroke-width:0.3;stroke-miterlimit:10;}
	.st2{fill:none;stroke:#686868;stroke-width:0.15;stroke-miterlimit:10;}
	.st3{fill:none;stroke:#F15A24;stroke-width:0.0666667;stroke-miterlimit:10;}
	.st4{fill:none;stroke:#1A1A1A;stroke-width:0.2;stroke-miterlimit:10;}
	.st5{fill:none;stroke:#686868;stroke-width:0.1;stroke-miterlimit:10;}
	.st6{fill:none;stroke:#F15A24;stroke-width:0.0666667;stroke-linecap:round;stroke-linejoin:round;stroke-miterlimit:10;}
	.st7{fill:none;stroke:#1A1A1A;stroke-width:0.2;stroke-linecap:round;stroke-linejoin:round;stroke-miterlimit:10;}
	.st8{fill:none;stroke:#686868;stroke-width:0.1;stroke-linecap:round;stroke-linejoin:round;stroke-miterlimit:10;}
	.st9{stroke:#F15A24;stroke-width:0.0666667;stroke-miterlimit:10;}
	.st10{stroke:#1A1A1A;stroke-width:0.2;stroke-miterlimit:10;}
	.st11{stroke:#686868;stroke-width:0.1;stroke-miterlimit:10;}
	.st12{fill:none;stroke:#FFFFFF;stroke-width:0.5;stroke-miterlimit:10;}
	.st13{fill:none;stroke:#000000;stroke-linecap:round;stroke-linejoin:round;stroke-miterlimit:10;}
	.st14{fill:none;stroke:#FFFFFF;stroke-width:0.5;stroke-linecap:round;stroke-linejoin:round;stroke-miterlimit:10;}
	.st15{fill:#606060;stroke:#000000;stroke-linecap:round;stroke-linejoin:round;stroke-miterlimit:10;}
	.st16{fill:none;stroke:#000000;stroke-width:4;stroke-miterlimit:10;}
	.st17{fill:#FFFFFF;}
	.st18{fill:none;stroke:#FFFFFF;stroke-width:0.1;stroke-miterlimit:10;}
	.st19{fill:none;stroke:#FFFFFF;stroke-width:0.1;stroke-linecap:round;stroke-linejoin:round;stroke-miterlimit:10;}
	.st20{fill:none;stroke:#FFFFFF;stroke-width:0.25;stroke-linecap:round;stroke-linejoin:round;stroke-miterlimit:10;}
	.st21{fill:none;stroke:#FFFFFF;stroke-width:0.25;stroke-miterlimit:10;}
	.st22{fill:none;stroke:#FFFFFF;stroke-linecap:round;stroke-linejoin:round;stroke-miterlimit:10;}
</style>
<g id="Layer_1">
	<g>
		<path d="M18.9301758,14.1226807l-1.3344727,0.4557495V9.7203369h0.6474609c0.315918,0,0.5976562-0.1977539,0.7050781-0.4951172
			c0.1074219-0.296875,0.0175781-0.6293945-0.2250977-0.831543l-1.1274414-0.9383545V4.1905518
			c0-0.4140625-0.3359375-0.75-0.75-0.75h-1.9648438c-0.4140625,0-0.75,0.3359375-0.75,0.75v0.3828125l-1.6826172-1.3999023
			c-0.2773438-0.2314453-0.6816406-0.2314453-0.9589844,0L5.2133789,8.3936768
			c-0.2431641,0.2021484-0.3330078,0.534668-0.2255859,0.831543C5.0947266,9.522583,5.3769531,9.7203369,5.6928711,9.7203369
			h0.6479492v2.5966187c-0.0665283-0.0193481-0.1323242-0.0414429-0.2050781-0.0414429H3.75c-0.4140625,0-0.75,0.3359375-0.75,0.75
			v7.2246094c0,0.4140625,0.3359375,0.75,0.75,0.75h2.3857422c0.312561,0,0.5795898-0.1918945,0.6921997-0.4638672h6.807312
			c0.0039062,0,0.0083008,0,0.012207,0c0.3696289,0,0.7329102-0.0996094,1.0537109-0.2895508L20.25,16.9317627
			c0.4697266-0.2871094,0.75-0.7856445,0.75-1.3334961c0-0.2783203-0.0751953-0.5522461-0.2163086-0.7905273
			C20.4086914,14.1734619,19.6293945,13.8873291,18.9301758,14.1226807z M15.6308594,4.9405518h0.4648438v1.2675781
			l-0.4648438-0.3867188V4.9405518z M11.96875,4.725708l2.4326172,2.0239258l1.7681885,1.4707031H7.7675781L11.96875,4.725708z
			 M16.0957031,9.7203369v5.3703613l-1.0678711,0.3646851V13.850708c0-0.8125-0.3173828-1.5761719-0.8925781-2.1494141
			c-0.5737305-0.5737305-1.3383789-0.8896484-2.1538086-0.8896484c-1.5188599,0-2.7711182,1.1166992-3.0001221,2.5679321
			c-0.2896729-0.1915894-0.6464844-0.3824463-1.1405029-0.4834595V9.7203369H16.0957031z M13.527832,14.7734985
			c-0.3949585-0.5142212-0.9968262-0.8397827-1.6337891-0.8397827h-1.4604492V13.850708
			c0-0.8486328,0.6943359-1.5390625,1.5478516-1.5390625c0.4145508,0,0.8027344,0.159668,1.0942383,0.4511719
			c0.2915039,0.2905273,0.4521484,0.6767578,0.4521484,1.0878906V14.7734985z M4.5,13.7755127h0.8857422v5.7246094H4.5V13.7755127z
			 M13.934082,18.9576416c-0.0874023,0.0517578-0.1630859,0.1186523-0.2944336,0.0786133H6.8857422V14.322876h0.2773438
			c0.5800781,0,0.8710938,0.2119141,1.2397461,0.4804688c0.2614136,0.1900635,0.5697632,0.3881836,0.9564819,0.5119629
			c0.0256958,0.0125122,0.0514526,0.0216675,0.0787354,0.031189c0.0283813,0.0078125,0.0476685,0.0237427,0.0770874,0.0305786
			c0.1655273,0.0380859,0.328125,0.0566406,0.4970703,0.0566406h1.8818359c0.2568359,0,0.4604492,0.2099609,0.5410156,0.4052734
			c0.0111084,0.0270386,0.0181274,0.0671387,0.0262451,0.1044922h-1.7347412c-0.6235352,0-1.2680664,0.3862305-1.4453125,0.5014648
			c-0.175293,0.1113281-0.3291016,0.2333984-0.456543,0.3623047c-0.2915039,0.2944336-0.2885742,0.7695312,0.0058594,1.0605469
			C9.125,18.1593018,9.6005859,18.1563721,9.8911133,17.8619385c0.0273438-0.027832,0.0888672-0.0839844,0.2001953-0.1547852
			c0.2822266-0.1831055,0.5571289-0.2631836,0.6352539-0.2636719h2.996582c0.0825195,0,0.1645508-0.0136719,0.2421875-0.0400391
			l5.4492188-1.8608398l-0.2421875-0.7099609l0.3017578,0.8149414L13.934082,18.9576416z"/>
	</g>
</g>
<g id="Layer_2">
</g>
<g id="Layer_3">
</g>
<g id="Layer_4">
</g>
<g id="Layer_5">
</g>
<g id="Layer_6">
</g>
</svg>
