<?xml version="1.0" encoding="utf-8"?>
<!-- Generator: Adobe Illustrator 27.3.1, SVG Export Plug-In . SVG Version: 6.00 Build 0)  -->
<svg version="1.1" xmlns="http://www.w3.org/2000/svg" xmlns:xlink="http://www.w3.org/1999/xlink" x="0px" y="0px"
	 viewBox="0 0 24 24" style="enable-background:new 0 0 24 24;" xml:space="preserve">
<style type="text/css">
	.st0{fill:none;stroke:#F15A24;stroke-width:0.1;stroke-miterlimit:10;}
	.st1{fill:none;stroke:#1A1A1A;stroke-width:0.3;stroke-miterlimit:10;}
	.st2{fill:none;stroke:#686868;stroke-width:0.15;stroke-miterlimit:10;}
	.st3{fill:none;stroke:#F15A24;stroke-width:0.0666667;stroke-miterlimit:10;}
	.st4{fill:none;stroke:#1A1A1A;stroke-width:0.2;stroke-miterlimit:10;}
	.st5{fill:none;stroke:#686868;stroke-width:0.1;stroke-miterlimit:10;}
	.st6{fill:none;stroke:#F15A24;stroke-width:0.0666667;stroke-linecap:round;stroke-linejoin:round;stroke-miterlimit:10;}
	.st7{fill:none;stroke:#1A1A1A;stroke-width:0.2;stroke-linecap:round;stroke-linejoin:round;stroke-miterlimit:10;}
	.st8{fill:none;stroke:#686868;stroke-width:0.1;stroke-linecap:round;stroke-linejoin:round;stroke-miterlimit:10;}
	.st9{stroke:#F15A24;stroke-width:0.0666667;stroke-miterlimit:10;}
	.st10{stroke:#1A1A1A;stroke-width:0.2;stroke-miterlimit:10;}
	.st11{stroke:#686868;stroke-width:0.1;stroke-miterlimit:10;}
	.st12{fill:none;stroke:#FFFFFF;stroke-width:0.5;stroke-miterlimit:10;}
	.st13{fill:none;stroke:#000000;stroke-linecap:round;stroke-linejoin:round;stroke-miterlimit:10;}
	.st14{fill:none;stroke:#FFFFFF;stroke-width:0.5;stroke-linecap:round;stroke-linejoin:round;stroke-miterlimit:10;}
	.st15{fill:#606060;stroke:#000000;stroke-linecap:round;stroke-linejoin:round;stroke-miterlimit:10;}
	.st16{fill:none;stroke:#000000;stroke-width:4;stroke-miterlimit:10;}
	.st17{fill:#FFFFFF;}
	.st18{fill:none;stroke:#FFFFFF;stroke-width:0.1;stroke-miterlimit:10;}
	.st19{fill:none;stroke:#FFFFFF;stroke-width:0.1;stroke-linecap:round;stroke-linejoin:round;stroke-miterlimit:10;}
	.st20{fill:none;stroke:#FFFFFF;stroke-width:0.25;stroke-linecap:round;stroke-linejoin:round;stroke-miterlimit:10;}
	.st21{fill:none;stroke:#FFFFFF;stroke-width:0.25;stroke-miterlimit:10;}
	.st22{fill:none;stroke:#FFFFFF;stroke-linecap:round;stroke-linejoin:round;stroke-miterlimit:10;}
</style>
<g id="Layer_1">
	<g>
		<path d="M17.0834732,4.0002494c-1.0971689-0.0600588-2.0083017,0.1821289-2.8964853,0.4106445
			c-0.7382812,0.1894531-1.4350586,0.3686523-2.1943359,0.3686523c-0.75,0-1.4428711-0.1782227-2.1767578-0.3671875
			C8.9281988,4.1838431,8.0102301,3.9411671,6.8891363,4.0022025c-3.1967771,0.2714844-4.6523438,5.5087886-4.8193359,8.7460938
			c-0.1367188,2.6533203,0.4770508,4.2451181,1.7890625,4.4921885c0.1269531,0.0131836,0.2519529,0.0195312,0.375488,0.0195312
			c1.6157227,0,2.8945312-1.1083984,4.0317383-2.0947275c0.2910156-0.2519531,0.581543-0.5043945,0.8637695-0.7275391
			c0.2207031-0.1671753,0.4937134-0.3009644,0.8076172-0.4065552v1.083313c0,0.4140625,0.3359375,0.75,0.75,0.75h0.5625v3.3945322
			c0,0.4140625,0.3359375,0.75,0.75,0.75s0.75-0.3359375,0.75-0.75v-3.3945322h0.5625c0.4140625,0,0.75-0.3359375,0.75-0.75
			v-1.0864258c0.3095703,0.1034546,0.5765991,0.2347412,0.7949219,0.3999023
			c0.2944336,0.2329102,0.5849609,0.4848633,0.8754883,0.7368164c1.1342783,0.9833994,2.4082041,2.0883799,4.0654306,2.0878916
			c0.1323242,0,0.2670898-0.0068359,0.4042969-0.0214844c1.2504883-0.237793,1.8642578-1.8295908,1.7275391-4.4829111
			C21.7631607,9.5109911,20.3075943,4.2736869,17.0834732,4.0002494z M12.5624762,13.7658129v0.5986938h-1.125v-0.6000366
			c0.1688843-0.0098267,0.3505859-0.0151978,0.5551758-0.0151978
			C12.2034674,13.7492723,12.3892584,13.7553759,12.5624762,13.7658129z M19.9838638,15.7482958
			c-1.1499023,0.121582-2.1782227-0.7714844-3.2680664-1.7167969c-0.3085938-0.2670898-0.6162109-0.5336914-0.9404306-0.7895508
			c-0.6196289-0.4697266-1.3916016-0.762207-2.315918-0.8876953c-0.1210938-0.0244141-0.2402344-0.0449219-0.2905273-0.0385742
			c-0.347168-0.0454102-0.7211914-0.0664062-1.1762695-0.0664062c-0.4555664,0-0.8295898,0.0209961-1.0800781,0.0600586
			c-0.1240234,0-0.2475586,0.0200195-0.3291016,0.0375977c-0.9584961,0.1342773-1.7519531,0.4350586-2.3710938,0.9042969
			c-0.3125,0.246582-0.6206055,0.5136719-0.9287109,0.7807617c-1.090332,0.9453125-2.1240234,1.8413086-3.2060547,1.7255859
			c-0.144531-0.0273438-0.6196287-0.796875-0.5097654-2.9321289c0.1723633-3.3427734,1.6308591-7.1743159,3.4208982-7.327148
			c0.8642578-0.0454102,1.6367188,0.1567383,2.453125,0.3666992c0.7919922,0.2036133,1.6108398,0.4145508,2.5507812,0.4145508
			c0.9487305,0,1.7714844-0.2114258,2.5673828-0.4155273c0.815918-0.2099609,1.5859385-0.4052734,2.4238291-0.3676758
			c1.8173828,0.1547852,3.2758789,3.9863276,3.4482422,7.3291011
			C20.5419693,14.9606981,20.0668716,15.7302294,19.9838638,15.7482958z"/>
		<path d="M14.6474371,8.5295458c-0.4140625,0-0.8100586,0.3959961-0.8100586,0.8100586s0.3959961,0.8095703,0.8100586,0.8095703
			s0.8100586-0.3955078,0.8100586-0.8095703S15.0614996,8.5295458,14.6474371,8.5295458z"/>
		<path d="M17.7372818,8.5295458c-0.4140625,0-0.824707,0.3959961-0.824707,0.8100586s0.4106445,0.8095703,0.824707,0.8095703
			s0.8100586-0.3955078,0.8100586-0.8095703S18.1513443,8.5295458,17.7372818,8.5295458z"/>
		<path d="M16.1923599,8.6042528c0.4140625,0,0.8100586-0.3959961,0.8100586-0.8100581
			c0-0.4140625-0.3959961-0.8095703-0.8100586-0.8095703c-0.4140635,0-0.8100595,0.3955078-0.8100595,0.8095703
			C15.3823004,8.2082567,15.7782965,8.6042528,16.1923599,8.6042528z"/>
		<circle cx="16.1923599" cy="10.8693895" r="0.8100586"/>
		<path d="M8.6474371,8.5817919H8.2797613V8.2146044c0-0.414062-0.3359375-0.7499995-0.75-0.7499995s-0.75,0.3359375-0.75,0.7499995
			v0.3671875H6.4125738c-0.4140625,0-0.75,0.3359375-0.75,0.75s0.3359375,0.75,0.75,0.75h0.3671875v0.3676758
			c0,0.4140625,0.3359375,0.75,0.75,0.75s0.75-0.3359375,0.75-0.75v-0.3676758h0.3676758c0.4140625,0,0.75-0.3359375,0.75-0.75
			S9.0614996,8.5817919,8.6474371,8.5817919z"/>
	</g>
</g>
<g id="Layer_2">
</g>
<g id="Layer_3">
</g>
<g id="Layer_4">
</g>
<g id="Layer_5">
</g>
<g id="Layer_6">
</g>
</svg>
